# xmcd
#
# Track frame offsets:
#	150
#	12225
#	24286
#	36678
#	48564
#	60423
#	74364
#	86147
#	98051
#	110127
#	122137
#	133851
#	146985
#	158637
#	172306
#	186347
#	198055
#	211354
#	223039
#	236888
#	250857
#	264832
#	276593
#	285741
#
# Disc length: 3967 seconds
#
# Revision: 3
# Processed by: cddbd v1.5.2PL0 Copyright (c) Steve Scherf et al.
# Submitted via: EasyCDDAExtractor 16.0.1.1
#
DISCID=7e0f7d18
DTITLE=Cliff Bruner and His Texas Wanderers - Cliff Bruner and His Texas Wanderers
DTITLE=4
DYEAR=194
DGENRE=Western Swing
TTITLE0='neath The Purple On The Hills (Alt)
TTITLE1=Draft Board Blues
TTITLE2=I'll Be Faithful
TTITLE3=Jessie's Sister
TTITLE4=Let Me Smile My Last Smile At You
TTITLE5=Tequila Rag
TTITLE6=Red River Rose
TTITLE7=My Time Will Come Someday
TTITLE8=The Sun Has Gone Down On Our Love
TTITLE9=If It's Wrong To Love You
TTITLE10=Born To Be Blue
TTITLE11=Baby What Your Doing To Me
TTITLE12=Snow Flakes
TTITLE13=That's What I Like About The South
TTITLE14=You Took Everything
TTITLE15=My Pretty Blonde
TTITLE16=You Always Hurt The One You Love
TTITLE17=Don't Make Me Blue
TTITLE18=A Mother Gave A Son
TTITLE19=I'll Try Not To Cry
TTITLE20=Won't You Mend My Aching Heart
TTITLE21=Roadside Rag
TTITLE22=Too Wet To Plow
TTITLE23=Jessie
EXTD=
EXTT0=
EXTT1=
EXTT2=
EXTT3=
EXTT4=
EXTT5=
EXTT6=
EXTT7=
EXTT8=
EXTT9=
EXTT10=
EXTT11=
EXTT12=
EXTT13=
EXTT14=
EXTT15=
EXTT16=
EXTT17=
EXTT18=
EXTT19=
EXTT20=
EXTT21=
EXTT22=
EXTT23=
PLAYORDER=
